<svg width="101" height="100" viewBox="0 0 101 100" fill="none" xmlns="http://www.w3.org/2000/svg">
<g clip-path="url(#clip0)">
<path d="M62.7828 9.23125C59.6257 3.28125 55.3285 0 50.6828 0C46.0371 0 41.7371 3.28125 38.58 9.23125L3.52567 75.2719C0.325673 81.3562 -0.0171844 87.675 2.58282 92.6031C5.0571 97.2906 9.91139 99.9875 15.9085 100H85.4571C91.4628 99.9875 96.3257 97.3 98.7914 92.6219C101.377 87.725 101.029 81.4313 97.8342 75.3563L62.7828 9.23125ZM96.32 91.0594C94.3742 94.7469 90.4142 96.8656 85.4514 96.875H15.9114C10.9657 96.8656 7.01139 94.7375 5.0571 91.0406C2.97996 87.1031 3.32567 81.925 5.99996 76.8344L41.0514 10.8C43.6771 5.85 47.0971 3.125 50.6828 3.125C54.2685 3.125 57.6885 5.85 60.3114 10.8L95.3628 76.9156C98.0342 81.9969 98.3828 87.1531 96.32 91.0594Z" fill="#2B2750"/>
<path d="M50.683 62.5C51.0618 62.5 51.4252 62.3354 51.6931 62.0424C51.961 61.7493 52.1115 61.3519 52.1115 60.9375V29.6875C52.1115 29.2731 51.961 28.8757 51.6931 28.5826C51.4252 28.2896 51.0618 28.125 50.683 28.125C50.3041 28.125 49.9407 28.2896 49.6728 28.5826C49.4049 28.8757 49.2544 29.2731 49.2544 29.6875V60.9375C49.2544 61.3519 49.4049 61.7493 49.6728 62.0424C49.9407 62.3354 50.3041 62.5 50.683 62.5Z" fill="#2B2750"/>
<path d="M50.4999 70.3125C47.3485 70.3125 44.7856 73.1156 44.7856 76.5625C44.7856 80.0094 47.3485 82.8125 50.4999 82.8125C53.6514 82.8125 56.2142 80.0094 56.2142 76.5625C56.2142 73.1156 53.6514 70.3125 50.4999 70.3125ZM50.4999 79.6875C49.7643 79.6515 49.0697 79.3065 48.5607 78.7244C48.0518 78.1423 47.7677 77.3679 47.7677 76.5625C47.7677 75.7571 48.0518 74.9827 48.5607 74.4006C49.0697 73.8185 49.7643 73.4735 50.4999 73.4375C51.2356 73.4735 51.9302 73.8185 52.4391 74.4006C52.9481 74.9827 53.2321 75.7571 53.2321 76.5625C53.2321 77.3679 52.9481 78.1423 52.4391 78.7244C51.9302 79.3065 51.2356 79.6515 50.4999 79.6875Z" fill="#2B2750"/>
</g>
<defs>
<clipPath id="clip0">
<rect x="0.5" width="100" height="100" rx="15" fill="white"/>
</clipPath>
</defs>
</svg>
