<svg width="315" height="295" viewBox="0 0 315 295" fill="none" xmlns="http://www.w3.org/2000/svg">
<g opacity="0.8">
<circle cx="7.5" cy="7.5" r="7.5" fill="#FFDF82"/>
<circle cx="37.5" cy="7.5" r="7.5" fill="#FFDF82"/>
<circle cx="67.5" cy="7.5" r="7.5" fill="#FFDF82"/>
<circle cx="97.5" cy="7.5" r="7.5" fill="#FFDF82"/>
<circle cx="127.5" cy="7.5" r="7.5" fill="#FFDF82"/>
<circle cx="157.5" cy="7.5" r="7.5" fill="#FFDF82"/>
<circle cx="187.5" cy="7.5" r="7.5" fill="#FFDF82"/>
<circle cx="217.5" cy="7.5" r="7.5" fill="#FFDF82"/>
<circle cx="247.5" cy="7.5" r="7.5" fill="#FFDF82"/>
<circle cx="277.5" cy="7.5" r="7.5" fill="#FFDF82"/>
<circle cx="307.5" cy="7.5" r="7.5" fill="#FFDF82"/>
<circle cx="7.5" cy="47.5" r="7.5" fill="#FFDF82"/>
<circle cx="37.5" cy="47.5" r="7.5" fill="#FFDF82"/>
<circle cx="67.5" cy="47.5" r="7.5" fill="#FFDF82"/>
<circle cx="97.5" cy="47.5" r="7.5" fill="#FFDF82"/>
<circle cx="127.5" cy="47.5" r="7.5" fill="#FFDF82"/>
<circle cx="157.5" cy="47.5" r="7.5" fill="#FFDF82"/>
<circle cx="187.5" cy="47.5" r="7.5" fill="#FFDF82"/>
<circle cx="217.5" cy="47.5" r="7.5" fill="#FFDF82"/>
<circle cx="247.5" cy="47.5" r="7.5" fill="#FFDF82"/>
<circle cx="277.5" cy="47.5" r="7.5" fill="#FFDF82"/>
<circle cx="307.5" cy="47.5" r="7.5" fill="#FFDF82"/>
<circle cx="7.5" cy="87.5" r="7.5" fill="#FFDF82"/>
<circle cx="37.5" cy="87.5" r="7.5" fill="#FFDF82"/>
<circle cx="67.5" cy="87.5" r="7.5" fill="#FFDF82"/>
<circle cx="97.5" cy="87.5" r="7.5" fill="#FFDF82"/>
<circle cx="127.5" cy="87.5" r="7.5" fill="#FFDF82"/>
<circle cx="157.5" cy="87.5" r="7.5" fill="#FFDF82"/>
<circle cx="187.5" cy="87.5" r="7.5" fill="#FFDF82"/>
<circle cx="217.5" cy="87.5" r="7.5" fill="#FFDF82"/>
<circle cx="247.5" cy="87.5" r="7.5" fill="#FFDF82"/>
<circle cx="277.5" cy="87.5" r="7.5" fill="#FFDF82"/>
<circle cx="307.5" cy="87.5" r="7.5" fill="#FFDF82"/>
<circle cx="7.5" cy="127.5" r="7.5" fill="#FFDF82"/>
<circle cx="37.5" cy="127.5" r="7.5" fill="#FFDF82"/>
<circle cx="67.5" cy="127.5" r="7.5" fill="#FFDF82"/>
<circle cx="97.5" cy="127.5" r="7.5" fill="#FFDF82"/>
<circle cx="127.5" cy="127.5" r="7.5" fill="#FFDF82"/>
<circle cx="157.5" cy="127.5" r="7.5" fill="#FFDF82"/>
<circle cx="187.5" cy="127.5" r="7.5" fill="#FFDF82"/>
<circle cx="217.5" cy="127.5" r="7.5" fill="#FFDF82"/>
<circle cx="247.5" cy="127.5" r="7.5" fill="#FFDF82"/>
<circle cx="277.5" cy="127.5" r="7.5" fill="#FFDF82"/>
<circle cx="307.5" cy="127.5" r="7.5" fill="#FFDF82"/>
<circle cx="7.5" cy="167.5" r="7.5" fill="#FFDF82"/>
<circle cx="37.5" cy="167.5" r="7.5" fill="#FFDF82"/>
<circle cx="67.5" cy="167.5" r="7.5" fill="#FFDF82"/>
<circle cx="97.5" cy="167.5" r="7.5" fill="#FFDF82"/>
<circle cx="127.5" cy="167.5" r="7.5" fill="#FFDF82"/>
<circle cx="157.5" cy="167.5" r="7.5" fill="#FFDF82"/>
<circle cx="187.5" cy="167.5" r="7.5" fill="#FFDF82"/>
<circle cx="217.5" cy="167.5" r="7.5" fill="#FFDF82"/>
<circle cx="247.5" cy="167.5" r="7.5" fill="#FFDF82"/>
<circle cx="277.5" cy="167.5" r="7.5" fill="#FFDF82"/>
<circle cx="307.5" cy="167.5" r="7.5" fill="#FFDF82"/>
<circle cx="7.5" cy="207.5" r="7.5" fill="#FFDF82"/>
<circle cx="37.5" cy="207.5" r="7.5" fill="#FFDF82"/>
<circle cx="67.5" cy="207.5" r="7.5" fill="#FFDF82"/>
<circle cx="97.5" cy="207.5" r="7.5" fill="#FFDF82"/>
<circle cx="127.5" cy="207.5" r="7.5" fill="#FFDF82"/>
<circle cx="157.5" cy="207.5" r="7.5" fill="#FFDF82"/>
<circle cx="187.5" cy="207.5" r="7.5" fill="#FFDF82"/>
<circle cx="217.5" cy="207.5" r="7.5" fill="#FFDF82"/>
<circle cx="247.5" cy="207.5" r="7.5" fill="#FFDF82"/>
<circle cx="277.5" cy="207.5" r="7.5" fill="#FFDF82"/>
<circle cx="307.5" cy="207.5" r="7.5" fill="#FFDF82"/>
<circle cx="7.5" cy="247.5" r="7.5" fill="#FFDF82"/>
<circle cx="37.5" cy="247.5" r="7.5" fill="#FFDF82"/>
<circle cx="67.5" cy="247.5" r="7.5" fill="#FFDF82"/>
<circle cx="97.5" cy="247.5" r="7.5" fill="#FFDF82"/>
<circle cx="127.5" cy="247.5" r="7.5" fill="#FFDF82"/>
<circle cx="157.5" cy="247.5" r="7.5" fill="#FFDF82"/>
<circle cx="187.5" cy="247.5" r="7.5" fill="#FFDF82"/>
<circle cx="217.5" cy="247.5" r="7.5" fill="#FFDF82"/>
<circle cx="247.5" cy="247.5" r="7.5" fill="#FFDF82"/>
<circle cx="277.5" cy="247.5" r="7.5" fill="#FFDF82"/>
<circle cx="307.5" cy="247.5" r="7.5" fill="#FFDF82"/>
<circle cx="7.5" cy="287.5" r="7.5" fill="#FFDF82"/>
<circle cx="37.5" cy="287.5" r="7.5" fill="#FFDF82"/>
<circle cx="67.5" cy="287.5" r="7.5" fill="#FFDF82"/>
<circle cx="97.5" cy="287.5" r="7.5" fill="#FFDF82"/>
<circle cx="127.5" cy="287.5" r="7.5" fill="#FFDF82"/>
<circle cx="157.5" cy="287.5" r="7.5" fill="#FFDF82"/>
<circle cx="187.5" cy="287.5" r="7.5" fill="#FFDF82"/>
<circle cx="217.5" cy="287.5" r="7.5" fill="#FFDF82"/>
<circle cx="247.5" cy="287.5" r="7.5" fill="#FFDF82"/>
<circle cx="277.5" cy="287.5" r="7.5" fill="#FFDF82"/>
<circle cx="307.5" cy="287.5" r="7.5" fill="#FFDF82"/>
</g>
</svg>
