<svg width="100" height="100" viewBox="0 0 100 100" fill="none" xmlns="http://www.w3.org/2000/svg">
<g clip-path="url(#clip0)">
<path d="M26.6664 46.667H23.333C20.5728 46.6699 18.3359 48.9068 18.333 51.667V55.0004C18.3359 57.7606 20.5728 59.9975 23.333 60.0004H26.6664C29.4265 59.9975 31.6635 57.7606 31.6664 55.0004V51.667C31.6635 48.9068 29.4265 46.6701 26.6664 46.667ZM28.3332 55.0004C28.3322 55.9205 27.5867 56.6662 26.6666 56.667H23.3332C22.4131 56.666 21.6674 55.9205 21.6666 55.0004V51.667C21.6676 50.7469 22.4131 50.0012 23.3332 50.0004H26.6666C27.5867 50.0014 28.3324 50.7469 28.3332 51.667V55.0004Z" fill="#2B2750"/>
<path d="M53.3334 46.667H50C47.2398 46.6699 45.0029 48.9068 45 51.667V55.0004C45.0029 57.7606 47.2398 59.9975 50 60.0004H53.3334C56.0935 59.9975 58.3304 57.7606 58.3334 55.0004V51.667C58.3302 48.9068 56.0935 46.6701 53.3334 46.667ZM55 55.0004C54.999 55.9205 54.2533 56.6662 53.3334 56.667H50C49.0799 56.666 48.3342 55.9205 48.3334 55.0004V51.667C48.3344 50.7469 49.0799 50.0012 50 50.0004H53.3334C54.2535 50.0014 54.9992 50.7469 55 51.667V55.0004Z" fill="#2B2750"/>
<path d="M68.3333 50.1508V46.667C68.3294 42.9867 65.3469 40.0043 61.6667 40.0004H46.0585L47.9628 38.6152C48.3573 38.3289 48.6065 37.884 48.6448 37.3981C48.6831 36.9121 48.5064 36.4338 48.1614 36.0893L38.2874 26.2144C38.0534 22.6621 35.0638 19.9238 31.5046 20.0021C27.9455 20.0804 25.0791 22.9474 25.0015 26.5068C24.924 30.066 27.663 33.0551 31.2154 33.2883L34.9976 37.0594L30.8992 40.0002H15C11.3197 40.0041 8.33729 42.9865 8.33338 46.6668V50.1506C3.52304 50.9586 0 55.1227 0 60.0003C0 64.8778 3.52304 69.0419 8.33338 69.8497V73.3335C8.33729 77.0138 11.3197 79.9962 15 80.0001H26.9738C26.33 81.7202 26.7148 83.6565 27.9671 85.0001C26.7146 86.3437 26.33 88.28 26.974 90.0001H15C11.3197 90.004 8.33729 92.9865 8.33338 96.6667V98.3333C8.33319 98.7753 8.50877 99.1993 8.82147 99.512C9.13397 99.8245 9.55799 100 10.0002 100H66.5276C66.5524 100 66.5727 99.987 66.5971 99.9861C66.6216 99.987 66.6421 100 66.6667 100C67.1087 100 67.5327 99.8247 67.8454 99.512C68.1579 99.1995 68.3335 98.7755 68.3335 98.3333V96.6667C68.3296 92.9865 65.3471 90.004 61.6669 90.0001H49.6931C50.3368 88.28 49.9521 86.3437 48.6997 85.0001C49.9521 83.6565 50.3368 81.7202 49.6931 80.0001H61.6669C65.3471 79.9962 68.3296 77.0138 68.3335 73.3335V69.8497C73.1436 69.0419 76.6668 64.8778 76.6668 60.0003C76.6668 55.1227 73.1434 50.9586 68.3333 50.1508ZM8.33338 66.4301C5.39237 65.6827 3.33339 63.0348 3.33339 60.0003C3.33339 56.9657 5.39237 54.318 8.33338 53.5704V66.4301ZM37.3898 30.0303L44.4253 37.0672L40.3915 40.0002H36.6171L38.5382 38.6217C38.9359 38.3361 39.188 37.8901 39.2275 37.4022C39.2669 36.9143 39.0898 36.4334 38.7431 36.0875L35.0331 32.3881C36.0058 31.8143 36.8165 31.0029 37.3898 30.0303ZM31.6665 30.0002C29.8255 30.0002 28.3331 28.5078 28.3331 26.6668C28.3331 24.8258 29.8255 23.3334 31.6665 23.3334C33.5076 23.3334 34.9999 24.8258 34.9999 26.6668C34.9978 28.507 33.5068 29.998 31.6665 30.0002ZM61.6665 93.3337C63.5065 93.3359 64.9977 94.8269 64.9999 96.6671H11.6666C11.6687 94.8271 13.1597 93.3359 15 93.3337H61.6665ZM31.6665 83.3337C30.746 83.3337 29.9999 82.5876 29.9999 81.6671C29.9999 80.7466 30.746 80.0005 31.6665 80.0005H44.9999C45.9204 80.0005 46.6665 80.7466 46.6665 81.6671C46.6665 82.5876 45.9204 83.3337 44.9999 83.3337C44.0794 83.3337 43.3333 84.0798 43.3333 85.0003C43.3333 85.9208 44.0794 86.6669 44.9999 86.6669C45.9204 86.6669 46.6665 87.4132 46.6665 88.3335C46.6665 89.254 45.9204 90.0001 44.9999 90.0001H31.6665C30.746 90.0001 29.9999 89.2538 29.9999 88.3335C29.9999 87.413 30.746 86.6669 31.6665 86.6669C32.587 86.6669 33.3331 85.9208 33.3331 85.0003C33.3331 84.0798 32.587 83.3337 31.6665 83.3337ZM54.9999 76.6669H21.6666V73.3335H54.9999V76.6669ZM54.9999 70.0003H21.6666V68.3337C21.6675 67.4135 22.413 66.6678 23.3332 66.6671H53.3331C54.2532 66.668 54.9989 67.4135 54.9997 68.3337V70.0003H54.9999ZM64.9999 73.3337C64.9977 75.1737 63.5067 76.6649 61.6665 76.6671H58.3331V68.3337C58.3302 65.5735 56.0933 63.3366 53.3331 63.3337H23.3332C20.573 63.3366 18.3361 65.5735 18.3332 68.3337V76.6671H15C13.1599 76.6649 11.6687 75.1739 11.6666 73.3337V46.6668C11.6687 44.8268 13.1597 43.3356 15 43.3334H61.6665C63.5065 43.3356 64.9977 44.8266 64.9999 46.6668V73.3337ZM68.3333 66.4301V53.5704C71.2743 54.3178 73.3333 56.9657 73.3333 60.0003C73.3333 63.0348 71.2743 65.6825 68.3333 66.4301Z" fill="#2B2750"/>
<path d="M96.6663 0H61.6664C59.8264 0.00214844 58.3352 1.49317 58.333 3.33341V33.3301C58.3352 35.1702 59.8262 36.6614 61.6664 36.6635H79.9998V44.997C79.9851 46.4368 80.9093 47.7185 82.28 48.1595C83.6855 48.6374 85.2371 48.1186 86.0724 46.8915L92.5812 36.6635H96.6665C98.5066 36.6614 99.9978 35.1702 99.9999 33.3301V3.33341C99.9976 1.49317 98.5066 0.00214844 96.6663 0ZM96.6663 33.3301H91.6663C91.0966 33.3303 90.5663 33.6212 90.2601 34.1016L83.333 44.9968V34.9967C83.3332 34.5548 83.1576 34.1307 82.8449 33.818C82.5324 33.5055 82.1084 33.3299 81.6662 33.3299H61.6662V3.33341L96.6661 3.33165V33.3301H96.6663Z" fill="#2B2750"/>
<path d="M68.3333 19.9999C68.7755 20.0005 69.1995 19.8247 69.5116 19.5116L75.1561 13.8671L80.6665 17.9997C81.3296 18.4989 82.2591 18.4329 82.845 17.845L88.3333 12.3567V13.3333C88.3333 14.2538 89.0796 14.9999 89.9999 14.9999C90.9202 14.9999 91.6665 14.2538 91.6665 13.3333V8.3333C91.663 8.13369 91.6231 7.93643 91.5489 7.75127C91.5266 7.69697 91.5016 7.64385 91.4735 7.59229C91.3071 7.25147 91.0278 6.979 90.6833 6.8208C90.6684 6.81436 90.6573 6.80244 90.6421 6.796L90.6378 6.79346C90.4528 6.72002 90.2561 6.68096 90.0573 6.67803C90.037 6.67744 90.0202 6.6665 89.9999 6.6665H84.9999C84.0794 6.6665 83.3333 7.4126 83.3333 8.33311C83.3333 9.25362 84.0794 9.99971 84.9999 9.99971H85.9764L81.5102 14.4659L76.0001 10.3335C75.3374 9.8335 74.4071 9.89952 73.8216 10.4882L67.155 17.1548C66.6784 17.6314 66.536 18.3482 66.7939 18.9708C67.0517 19.5937 67.6593 19.9997 68.3333 19.9999Z" fill="#2B2750"/>
<path d="M68.3334 30.0001C68.7754 30.0003 69.1994 29.8247 69.5121 29.512C69.8246 29.1995 70.0002 28.7755 70.0002 28.3333V25.0001C70.0002 24.0796 69.2541 23.3335 68.3336 23.3335C67.4131 23.3335 66.667 24.0796 66.667 25.0001V28.3335C66.6668 28.7755 66.8424 29.1995 67.1551 29.5122C67.4672 29.8247 67.8912 30.0003 68.3334 30.0001Z" fill="#2B2750"/>
<path d="M74.9998 18.3335C74.5578 18.3333 74.1338 18.5089 73.8211 18.8216C73.5086 19.1341 73.333 19.5581 73.333 20.0003V28.3337C73.333 29.2542 74.0791 30.0003 74.9996 30.0003C75.9201 30.0003 76.6662 29.254 76.6662 28.3337V20.0001C76.6664 19.5581 76.4908 19.1341 76.1781 18.8214C75.8658 18.5089 75.4418 18.3333 74.9998 18.3335Z" fill="#2B2750"/>
<path d="M81.6668 21.6665C81.2248 21.6663 80.8008 21.8419 80.4881 22.1546C80.1756 22.4671 80 22.8911 80 23.3333V28.3333C80 29.2538 80.7461 29.9999 81.6666 29.9999C82.5871 29.9999 83.3332 29.2536 83.3332 28.3333V23.3333C83.3334 22.8913 83.1578 22.4673 82.8451 22.1546C82.533 21.8421 82.109 21.6665 81.6668 21.6665Z" fill="#2B2750"/>
<path d="M88.3328 18.3335C87.8908 18.3333 87.4668 18.5089 87.1541 18.8216C86.8416 19.1341 86.666 19.5581 86.666 20.0003V28.3337C86.666 29.2542 87.4123 30.0003 88.3326 30.0003C89.2531 30.0003 89.9992 29.254 89.9992 28.3337V20.0001C89.9994 19.5581 89.8238 19.1341 89.5111 18.8214C89.1988 18.5089 88.7748 18.3333 88.3328 18.3335Z" fill="#2B2750"/>
</g>
<defs>
<clipPath id="clip0">
<rect width="100" height="100" fill="white"/>
</clipPath>
</defs>
</svg>
