<svg width="1191" height="1066" viewBox="0 0 1191 1066" fill="none" xmlns="http://www.w3.org/2000/svg">
<g filter="url(#filter0_d)">
<path d="M1151 26C1151 26 1094.55 25.9999 1038.62 75C982.691 124 946.771 215.685 982.201 354.321C1008.12 455.748 968.174 507.557 925.911 562.368C910.408 582.475 894.592 602.987 881.603 626.5C875.622 637.326 870.2 646.318 865.092 654.787C855.296 671.031 846.661 685.351 837.473 707C833.014 717.506 828.46 727.836 823.972 738.018L823.969 738.026C788.743 817.934 757.555 888.685 808.224 963C841.345 1011.58 931.228 1044.61 943.674 1049L213 1049.93V1050H2V26H1151Z" fill="#FBFBFB"/>
<path d="M943.674 1049L945.111 1049.5C945.111 1049.5 944.918 1049.43 944.546 1049.31C944.32 1049.23 944.029 1049.13 943.674 1049Z" fill="#FBFBFB"/>
</g>
<defs>
<filter id="filter0_d" x="0.469999" y="0.49" width="1190.02" height="1065.02" filterUnits="userSpaceOnUse" color-interpolation-filters="sRGB">
<feFlood flood-opacity="0" result="BackgroundImageFix"/>
<feColorMatrix in="SourceAlpha" type="matrix" values="0 0 0 0 0 0 0 0 0 0 0 0 0 0 0 0 0 0 127 0"/>
<feOffset dx="18.98" dy="-5"/>
<feGaussianBlur stdDeviation="10.255"/>
<feColorMatrix type="matrix" values="0 0 0 0 0 0 0 0 0 0 0 0 0 0 0 0 0 0 0.29 0"/>
<feBlend mode="normal" in2="BackgroundImageFix" result="effect1_dropShadow"/>
<feBlend mode="normal" in="SourceGraphic" in2="effect1_dropShadow" result="shape"/>
</filter>
</defs>
</svg>
