<svg width="101" height="100" viewBox="0 0 101 100" fill="none" xmlns="http://www.w3.org/2000/svg">
<g clip-path="url(#clip0)">
<path d="M72.2294 34.3069C72.2768 43.5913 69.1522 50.9509 62.8558 56.3857C62.051 57.1104 61.767 58.0388 62.0037 59.171L72.2294 34.3069ZM72.2294 34.3069C72.2294 26.8341 70.3121 20.6973 66.4774 15.8966C62.6428 11.0959 57.3169 8.6955 50.4997 8.6955C43.6826 8.6955 38.3567 11.0959 34.5221 15.8966M72.2294 34.3069L34.5221 15.8966M34.5221 15.8966C30.6874 20.6973 28.7701 26.8341 28.7701 34.3069L34.5221 15.8966ZM29.7701 34.312V34.3069C29.7701 27.0103 31.639 21.1083 35.3034 16.5207C38.9258 11.9856 43.9487 9.6955 50.4997 9.6955C57.0508 9.6955 62.0737 11.9856 65.6961 16.5207C69.3605 21.1083 71.2294 27.0103 71.2294 34.3069L71.2294 34.312C71.2755 43.3421 68.25 50.4087 62.2024 55.6287L62.1945 55.6356L62.1867 55.6426C61.096 56.6246 60.7213 57.9239 61.0248 59.3757L61.0514 59.5028L61.1096 59.6189L62.7391 62.8722C63.343 64.129 64.2442 65.1244 65.4299 65.8367C66.5511 66.5102 68.792 67.4126 72.0439 68.5398L72.0557 68.5439L72.0676 68.5477C72.2149 68.5946 75.2166 69.5254 81.0585 71.3355C83.9809 72.241 86.2172 72.9419 87.7691 73.4387C88.5455 73.6872 89.1471 73.8835 89.5763 74.0283C89.7912 74.1007 89.9588 74.1589 90.0816 74.2034C90.1974 74.2454 90.2481 74.2662 90.2589 74.2707C90.2608 74.2715 90.2615 74.2718 90.261 74.2715L90.2912 74.286L90.3222 74.2983C94.203 75.8452 96.5565 77.3848 97.6357 78.8353C98.2017 80.1109 98.6756 82.4501 98.9993 85.9778C99.3076 89.3388 99.4723 93.6767 99.4905 98.9999H1.50901C1.52716 93.6767 1.69185 89.3388 2.00023 85.9778C2.32389 82.4501 2.79781 80.1109 3.36386 78.8353C4.44304 77.3847 6.79652 75.8452 10.6773 74.2983L10.7083 74.286L10.7385 74.2715C10.738 74.2718 10.7387 74.2715 10.7406 74.2707C10.7515 74.2662 10.8021 74.2454 10.9179 74.2034C11.0407 74.1589 11.2083 74.1007 11.4232 74.0283C11.8524 73.8835 12.454 73.6872 13.2304 73.4387C14.7823 72.9419 17.0186 72.241 19.941 71.3355C25.7829 69.5254 28.7846 68.5946 28.9319 68.5477L28.9438 68.5439L28.9556 68.5398C32.2075 67.4126 34.4484 66.5102 35.5696 65.8367C36.7553 65.1244 37.6565 64.129 38.2604 62.8722L39.8899 59.6189L39.9481 59.5028L39.9747 59.3757C40.2782 57.9239 39.9035 56.6246 38.8128 55.6426L38.805 55.6356L38.7971 55.6287C32.7495 50.4087 29.724 43.3421 29.7701 34.312Z" stroke="#2B2750" stroke-width="2"/>
<path d="M46.7316 49.9878C46.7741 47.5667 47.0612 45.6543 47.5929 44.2505C48.1246 42.8467 49.2092 41.2903 50.8467 39.5813L55.0256 35.4614C56.812 33.5286 57.7052 31.4535 57.7052 29.2358C57.7052 27.0996 57.1203 25.4313 55.9507 24.231C54.781 23.0103 53.0797 22.3999 50.8467 22.3999C48.6775 22.3999 46.9336 22.9492 45.6151 24.0479C44.2966 25.1465 43.6373 26.6215 43.6373 28.4729H37.7358C37.7784 25.177 39.0012 22.522 41.4043 20.5078C43.8287 18.4733 46.9762 17.4561 50.8467 17.4561C54.8661 17.4561 57.9923 18.4937 60.2253 20.5688C62.4795 22.6237 63.6067 25.4517 63.6067 29.0527C63.6067 32.6131 61.8841 36.1226 58.4389 39.5813L54.9618 42.8772C53.4093 44.5251 52.6331 46.8953 52.6331 49.9878H46.7316ZM46.4764 59.6619C46.4764 58.7463 46.7635 57.9834 47.3377 57.373C47.9332 56.7423 48.8051 56.427 49.9535 56.427C51.1019 56.427 51.9738 56.7423 52.5693 57.373C53.1648 57.9834 53.4625 58.7463 53.4625 59.6619C53.4625 60.5774 53.1648 61.3403 52.5693 61.9507C51.9738 62.5407 51.1019 62.8357 49.9535 62.8357C48.8051 62.8357 47.9332 62.5407 47.3377 61.9507C46.7635 61.3403 46.4764 60.5774 46.4764 59.6619Z" fill="#2B2750"/>
</g>
<defs>
<clipPath id="clip0">
<rect width="100" height="100" fill="white" transform="translate(0.5)"/>
</clipPath>
</defs>
</svg>
